<?xml version="1.0" encoding="UTF-8" standalone="no"?>
<svg width="60px" height="60px" viewBox="0 0 60 60" version="1.1" xmlns="http://www.w3.org/2000/svg" xmlns:xlink="http://www.w3.org/1999/xlink" xmlns:sketch="http://www.bohemiancoding.com/sketch/ns">
    <!-- Generator: Sketch 3.2.2 (9983) - http://www.bohemiancoding.com/sketch -->
    <title>Drglasses</title>
    <desc>Created with Sketch.</desc>
    <defs></defs>
    <g id="stroked" stroke="none" stroke-width="1" fill="none" fill-rule="evenodd" sketch:type="MSPage">
        <g id="Medical" sketch:type="MSLayerGroup" transform="translate(-860.000000, -477.000000)" stroke-linecap="square" stroke="#14dbdb" stroke-width="2">
            <g id="Drglasses" transform="translate(863.000000, 487.000000)" sketch:type="MSShapeGroup">
                <path d="M29.614334,25.481226 C29.2750467,23.558598 30.5828279,22 32.5288658,22 L50.4711342,22 C52.420073,22 53.9068204,23.5840529 53.7921922,25.5327325 L53.2932762,34.0143052 C53.1313042,36.7678284 50.7526321,39 47.9966569,39 L37.0033431,39 C34.240073,39 31.6108779,36.794975 31.1322757,34.0828956 L29.614334,25.481226 Z" id="Rectangle-236"></path>
                <path d="M0.614334002,25.481226 C0.275046701,23.558598 1.58282793,22 3.5288658,22 L21.4711342,22 C23.420073,22 24.9068204,23.5840529 24.7921922,25.5327325 L24.2932762,34.0143052 C24.1313042,36.7678284 21.7526321,39 18.9966569,39 L8.0033431,39 C5.24007301,39 2.61087794,36.794975 2.1322757,34.0828956 L0.614334002,25.481226 Z" id="Rectangle-236" transform="translate(12.679578, 30.500000) scale(-1, 1) translate(-12.679578, -30.500000) "></path>
                <path d="M25,27 L29.5,27" id="Line"></path>
                <path d="M43,36 L47.5,36" id="Line"></path>
                <path d="M7,36 L11.5,36" id="Line"></path>
                <path d="M39.7656276,4.52699827 L44.0755654,0.458004485 L51.7291125,21.7805324" id="Path-567" stroke-linejoin="round"></path>
                <path d="M2.69783598,4.52699827 L7.00777381,0.458004485 L14.6613209,21.7805324" id="Path-567" stroke-linejoin="round" transform="translate(8.679578, 11.119268) scale(-1, 1) translate(-8.679578, -11.119268) "></path>
            </g>
        </g>
    </g>
</svg>